<?xml version="1.0" encoding="UTF-8" standalone="no"?>
<!-- Created with Inkscape (http://www.inkscape.org/) -->

<svg
   xmlns:dc="http://purl.org/dc/elements/1.1/"
   xmlns:cc="http://creativecommons.org/ns#"
   xmlns:rdf="http://www.w3.org/1999/02/22-rdf-syntax-ns#"
   xmlns:svg="http://www.w3.org/2000/svg"
   xmlns="http://www.w3.org/2000/svg"
   xmlns:xlink="http://www.w3.org/1999/xlink"
   xmlns:sodipodi="http://sodipodi.sourceforge.net/DTD/sodipodi-0.dtd"
   xmlns:inkscape="http://www.inkscape.org/namespaces/inkscape"
   width="210mm"
   height="297mm"
   id="svg2"
   version="1.1"
   inkscape:version="0.48.2 r9819"
   sodipodi:docname="jellyfish.svg">
  <defs
     id="defs4">
    <linearGradient
       id="linearGradient3293">
      <stop
         style="stop-color:#000080;stop-opacity:1;"
         offset="0"
         id="stop3295" />
      <stop
         style="stop-color:#000000;stop-opacity:1;"
         offset="1"
         id="stop3297" />
    </linearGradient>
    <radialGradient
       inkscape:collect="always"
       xlink:href="#linearGradient3293"
       id="radialGradient3299"
       cx="-1575.838"
       cy="656.8194"
       fx="-1575.838"
       fy="656.8194"
       r="1030.2773"
       gradientTransform="matrix(1.458827,0.14625345,-0.07210636,1.2798787,770.39777,190.59908)"
       gradientUnits="userSpaceOnUse" />
    <filter
       inkscape:collect="always"
       id="filter4163"
       x="-0.078290703"
       width="1.1565814"
       y="-0.25682131"
       height="1.5136426">
      <feGaussianBlur
         inkscape:collect="always"
         stdDeviation="33.906614"
         id="feGaussianBlur4165" />
    </filter>
    <filter
       inkscape:collect="always"
       id="filter4169"
       x="-0.063001742"
       width="1.1260035"
       y="-1.2593036"
       height="3.5186071">
      <feGaussianBlur
         inkscape:collect="always"
         stdDeviation="54.001492"
         id="feGaussianBlur4171" />
    </filter>
  </defs>
  <sodipodi:namedview
     id="base"
     pagecolor="#ffffff"
     bordercolor="#666666"
     borderopacity="1.0"
     inkscape:pageopacity="0.0"
     inkscape:pageshadow="2"
     inkscape:zoom="0.12374369"
     inkscape:cx="-771.84796"
     inkscape:cy="165.00515"
     inkscape:document-units="px"
     inkscape:current-layer="layer1"
     showgrid="false"
     inkscape:window-width="1366"
     inkscape:window-height="706"
     inkscape:window-x="-8"
     inkscape:window-y="-8"
     inkscape:window-maximized="1" />
  <metadata
     id="metadata7">
    <rdf:RDF>
      <cc:Work
         rdf:about="">
        <dc:format>image/svg+xml</dc:format>
        <dc:type
           rdf:resource="http://purl.org/dc/dcmitype/StillImage" />
        <dc:title></dc:title>
      </cc:Work>
    </rdf:RDF>
  </metadata>
  <g
     inkscape:label="Ebene 1"
     inkscape:groupmode="layer"
     id="layer1">
    <g
       id="g3791"
       inkscape:export-filename="C:\Users\Hamza\Desktop\jellyfish.png"
       inkscape:export-xdpi="81"
       inkscape:export-ydpi="81">
      <path
         sodipodi:nodetypes="sssssssscs"
         inkscape:connector-curvature="0"
         id="path3777"
         d="m 353.49281,369.1667 c -5.76831,9.54892 -11.14343,28.88304 0.0966,39.22493 7.68888,7.07447 2.50196,15.57784 2.35364,23.28478 -0.2633,13.68123 0.19233,26.40182 -5.54301,33.20613 -12.47574,14.80103 -14.50245,30.93748 -1.89275,46.35004 5.2835,6.45791 12.55066,-0.73475 18.11839,-6.87906 15.89086,-17.53648 21.50287,-52.78705 20.57998,-82.58694 -0.52832,-17.0593 -10.32883,-33.68799 -5.40039,-44.0636 5.28037,-11.11653 -5.85333,-14.24955 -5.85333,-14.24955 0,0 -17.69691,-2.17022 -22.45916,5.71327 z"
         style="fill:#eeaaff;fill-opacity:1;stroke:#ffffff;stroke-width:3.6575191;stroke-linecap:butt;stroke-linejoin:miter;stroke-opacity:1" />
      <path
         sodipodi:nodetypes="ssss"
         inkscape:connector-curvature="0"
         id="path2991"
         d="m 193.94929,285.6564 c -0.16245,-130.6201 268.74704,-128.8517 268.70057,2.02031 -0.026,73.21786 -74.20168,65.62159 -138.37785,67.2003 -69.8707,1.71878 -130.22884,6.26254 -130.32272,-69.22061 z"
         style="fill:#eeaaff;stroke:#ffffff;stroke-width:4;stroke-linecap:butt;stroke-linejoin:miter;stroke-opacity:1" />
      <path
         sodipodi:nodetypes="sssssss"
         inkscape:connector-curvature="0"
         id="path2997"
         d="m 237.85714,363.79076 c -5.14747,0.97498 -18.73116,-11.0755 -19.66675,-6.3896 -2.7376,13.7112 6.25638,46.33457 -7.77728,64.60291 -12.03817,15.67069 1.94776,94.78213 11.72974,99.64383 10.38598,5.16189 22.94016,-46.15973 3.3612,-64.20322 -14.57787,-13.43459 8.94116,-42.93613 5.01341,-59.24542 -3.0368,-12.60978 15.7456,-36.00066 7.33968,-34.4085 z"
         style="fill:#eeaaff;fill-opacity:1;stroke:#ffffff;stroke-width:4;stroke-linecap:butt;stroke-linejoin:miter;stroke-opacity:1" />
      <path
         sodipodi:nodetypes="ssssscsssss"
         inkscape:connector-curvature="0"
         id="path3001"
         d="m 282.14285,365.93361 c -9.7926,-2.02606 -0.58849,20.01733 0,30 0.54259,9.20403 -3.42058,20.97981 -4.28571,27.14286 -1.85023,13.18072 -0.13749,9.26669 0,22.85714 0.0747,7.38875 8.89517,2.61637 -0.71429,37.85715 -1.87911,6.89126 0,14.28571 0,21.42857 6.55295,7.38926 5.40458,13.7289 9.98589,14.1565 17.41866,1.62582 24.76506,-57.64006 15.01411,-74.87079 -6.95288,-12.28631 -2.20305,-28.76539 -1.42857,-43.57143 0.5426,-10.37314 12.18835,-28.6359 2.14286,-30.71428 -6.90476,-1.42857 -20.71429,-4.28572 -20.71429,-4.28572 z"
         style="fill:#eeaaff;fill-opacity:1;stroke:#ffffff;stroke-width:4;stroke-linecap:butt;stroke-linejoin:miter;stroke-opacity:1" />
      <path
         sodipodi:nodetypes="csssssssscc"
         inkscape:connector-curvature="0"
         id="path3779"
         d="m 431.39884,353.9492 c 0,0 20.24822,28.92092 14.22096,43.93031 -7.26919,18.10208 7.06453,35.16984 6.49332,50.3554 -0.28031,7.45209 -6.1721,13.97562 -6.42857,21.42857 -0.44497,12.9308 16.98808,28.03046 8.57143,37.85715 -11.33304,13.23166 -50.47149,4.41861 -39.51595,-9.12727 12.15956,-15.03458 7.37309,-23.01559 7.37309,-23.01559 2.43129,-11.91474 13.27589,-34.6846 6.12882,-49.30795 -4.0038,-8.19201 -6.02312,-21.5608 -3.16655,-32.91272 1.93714,-7.69817 -19.26967,-17.04646 -20.81941,-30.63647 z"
         style="fill:#eeaaff;fill-opacity:1;stroke:#ffffff;stroke-width:4;stroke-linecap:butt;stroke-linejoin:miter;stroke-opacity:1" />
      <path
         sodipodi:nodetypes="csc"
         inkscape:connector-curvature="0"
         id="path2993"
         d="m 199.59179,325.91457 c -48.45623,19.69565 42.48117,47.44778 120.46092,47.3642 102.27686,-0.10962 188.17558,-24.63879 133.15915,-45.73693"
         style="fill:#eeaaff;stroke:#ffffff;stroke-width:4;stroke-linecap:butt;stroke-linejoin:miter;stroke-opacity:1" />
      <path
         sodipodi:nodetypes="sssssssss"
         inkscape:connector-curvature="0"
         id="path3781"
         d="m 271.42857,210.21932 c -6.16237,-16.63365 -46.24951,25.58536 -52.68162,36.64703 -14.27519,24.54988 -11.38073,55.26136 -2.07963,74.29959 1.35278,2.76899 9.04223,5.43712 8.63547,8.22558 -1.4501,9.94099 3.7737,12.39801 7.1445,12.50401 2.74182,0.0862 0.34227,-16.84636 0.0177,-25.62988 -0.18802,-5.08833 4.72103,-5.07871 5.43576,-8.13324 3.35742,-14.34838 1.12119,-36.87704 9.53904,-52.48037 7.65549,-14.19025 31.33749,-25.59688 23.98878,-45.43272 z"
         style="fill:#f7d0ff;stroke:none;stroke-width:1px;stroke-linecap:butt;stroke-linejoin:miter;stroke-opacity:1;fill-opacity:1" />
      <path
         sodipodi:nodetypes="sssssss"
         inkscape:connector-curvature="0"
         id="path3785"
         d="m 316.17775,226.0574 c -0.0603,-25.65664 45.63738,-19.54269 60.04695,-15.92772 27.9384,7.00898 54.34285,61.15109 50.84957,74.45875 -1.9481,7.4213 -31.00313,7.77356 -48.06831,8.53763 -21.50031,0.96264 -21.1632,-11.73961 -36.964,-21.12521 -7.2363,-4.29832 -8.17781,-4.94894 -16.84643,-11.07484 -9.85013,-6.96086 -8.97851,-18.15315 -9.01778,-34.86861 z"
         style="fill:#d119ff;stroke:none;stroke-width:1px;stroke-linecap:butt;stroke-linejoin:miter;stroke-opacity:1;fill-opacity:1" />
      <path
         inkscape:connector-curvature="0"
         id="path3787"
         d="m 353.55339,316.97113 c -89.06165,-77.43012 0,96.61379 0,0 z"
         style="fill:#d119ff;stroke:none;stroke-width:1px;stroke-linecap:butt;stroke-linejoin:miter;stroke-opacity:1;fill-opacity:1" />
      <path
         inkscape:connector-curvature="0"
         id="path3789"
         d="m 381.83766,317.98128 c 66.03368,-45.36366 0,53.45991 0,0 z"
         style="fill:#d119ff;stroke:none;stroke-width:1px;stroke-linecap:butt;stroke-linejoin:miter;stroke-opacity:1;fill-opacity:1" />
    </g>
  </g>
</svg>
